<svg width="4185" height="699" viewBox="0 0 4185 699" fill="none" xmlns="http://www.w3.org/2000/svg">
<path d="M1174 623V76" stroke="#1F2937" stroke-width="5"/>
<path fill-rule="evenodd" clip-rule="evenodd" d="M434 388.498C434 389.607 432.833 389.996 429.5 389.996C426.167 389.996 425 390.384 425 391.494C425 392.54 423.944 392.992 421.5 392.992C419.056 392.992 418 393.443 418 394.489C418 395.426 417.052 395.987 415.469 395.987C414.076 395.987 412.678 396.661 412.362 397.485C412.045 398.309 411.159 398.983 410.393 398.983C409.627 398.983 409 399.621 409 400.402C409 401.182 407.65 402.117 406 402.478C404.35 402.84 403 403.774 403 404.554C403 405.335 402.325 405.973 401.5 405.973C400.675 405.973 400 406.647 400 407.471C400 408.295 399.361 408.969 398.579 408.969C397.798 408.969 396.862 410.317 396.5 411.965C396.138 413.613 395.202 414.961 394.421 414.961C393.639 414.961 393 415.635 393 416.459C393 417.282 392.325 417.956 391.5 417.956C390.5 417.956 390 418.955 390 420.952C390 422.949 389.5 423.948 388.5 423.948C387.452 423.948 387 425.003 387 427.443C387 429.884 386.548 430.938 385.5 430.938C384.389 430.938 384 432.104 384 435.432C384 438.76 383.611 439.926 382.5 439.926C381.176 439.926 381 451.965 381 542.282C381 632.599 381.176 644.638 382.5 644.638C383.611 644.638 384 645.803 384 649.131C384 652.46 384.389 653.625 385.5 653.625C386.548 653.625 387 654.68 387 657.12C387 659.561 387.452 660.615 388.5 660.615C389.5 660.615 390 661.614 390 663.611C390 665.608 390.5 666.607 391.5 666.607C392.325 666.607 393 667.281 393 668.105C393 668.928 393.639 669.603 394.421 669.603C395.202 669.603 396.138 670.951 396.5 672.598C396.862 674.246 397.798 675.594 398.579 675.594C399.361 675.594 400 676.268 400 677.092C400 677.916 400.675 678.59 401.5 678.59C402.325 678.59 403 679.228 403 680.009C403 680.789 404.35 681.723 406 682.085C407.65 682.446 409 683.381 409 684.161C409 684.942 409.675 685.58 410.5 685.58C411.325 685.58 412 686.254 412 687.078C412 688.077 413 688.576 415 688.576C417 688.576 418 689.075 418 690.074C418 691.066 418.994 691.572 420.95 691.572C422.573 691.572 424.26 692.178 424.7 692.918C425.14 693.659 427.264 694.541 429.419 694.88C431.575 695.219 433.696 696.073 434.133 696.779C435.326 698.708 637.698 698.668 638.892 696.738C639.343 696.01 641.682 695.151 644.09 694.828C646.499 694.505 649.071 693.641 649.806 692.907C650.541 692.173 652.011 691.572 653.071 691.572C654.132 691.572 655 690.898 655 690.074C655 689.075 656 688.576 658 688.576C659.925 688.576 661 688.068 661 687.157C661 686.377 662.35 685.442 664 685.081C665.65 684.719 667 684.009 667 683.504C667 682.998 667.623 682.584 668.383 682.584C669.144 682.584 670.002 681.686 670.29 680.587C670.577 679.489 671.53 678.59 672.406 678.59C673.283 678.59 674 677.916 674 677.092C674 676.268 674.675 675.594 675.5 675.594C676.325 675.594 677 674.92 677 674.096C677 673.272 677.414 672.598 677.921 672.598C678.427 672.598 679.138 671.25 679.5 669.603C679.862 667.955 680.798 666.607 681.579 666.607C682.361 666.607 683 665.708 683 664.61C683 663.5 683.667 662.612 684.5 662.612C685.492 662.612 686 661.622 686 659.687C686 658.08 686.602 656.162 687.337 655.428C688.072 654.695 688.938 652.126 689.261 649.72C689.584 647.316 690.445 644.98 691.174 644.53C692.261 643.859 692.5 625.267 692.5 541.249C692.5 444.704 692.399 438.73 690.75 437.809C689.492 437.106 689 435.581 689 432.386C689 429.102 688.609 427.942 687.5 427.942C686.5 427.942 686 426.944 686 424.947C686 422.949 685.5 421.951 684.5 421.951C683.667 421.951 683 421.063 683 419.954C683 418.844 682.333 417.956 681.5 417.956C680.5 417.956 680 416.958 680 414.961C680 412.963 679.5 411.965 678.5 411.965C677.675 411.965 677 411.291 677 410.467C677 409.643 676.325 408.969 675.5 408.969C674.675 408.969 674 408.295 674 407.471C674 406.647 673.425 405.973 672.723 405.973C672.02 405.973 670.282 404.649 668.86 403.03C667.438 401.413 665.088 399.791 663.637 399.428C662.187 399.064 661 398.141 661 397.377C661 396.612 660.293 395.987 659.429 395.987C658.564 395.987 657.182 395.313 656.357 394.489C655.532 393.666 653.539 392.992 651.929 392.992C650.116 392.992 649 392.47 649 391.624C649 390.734 647.351 390.07 644.283 389.724C641.688 389.433 639.401 388.7 639.199 388.096C638.937 387.31 609.92 387 536.417 387C446.046 387 434 387.176 434 388.498Z" fill="#3B85DB"/>
<path fill-rule="evenodd" clip-rule="evenodd" d="M132.638 388.566C132.197 389.715 130.303 390.064 124.531 390.064C118.503 390.064 117 390.363 117 391.562C117 392.693 115.778 393.06 112 393.06C108.222 393.06 107 393.426 107 394.558C107 395.667 105.833 396.056 102.5 396.056C99.167 396.056 98 396.444 98 397.554C98 398.555 96.997 399.051 94.969 399.051C93.254 399.051 91.697 399.676 91.385 400.488C91.081 401.278 89.521 402.213 87.916 402.565C86.312 402.917 85 403.582 85 404.044C85 404.507 83.688 405.172 82.084 405.524C80.479 405.876 78.919 406.811 78.615 407.6C78.311 408.39 76.924 409.037 75.531 409.037C73.948 409.037 73 409.599 73 410.535C73 411.367 72.111 412.033 71 412.033C69.889 412.033 69 412.699 69 413.531C69 414.355 68.325 415.029 67.5 415.029C66.675 415.029 66 415.703 66 416.527C66 417.526 65 418.025 63 418.025C61 418.025 60 418.524 60 419.523C60 420.347 59.497 421.021 58.882 421.021C57.428 421.021 50 428.438 50 429.89C50 430.504 49.325 431.007 48.5 431.007C47.675 431.007 47 431.681 47 432.504C47 433.328 46.325 434.002 45.5 434.002C44.675 434.002 44 434.676 44 435.5C44 436.324 43.325 436.998 42.5 436.998C41.675 436.998 41 437.672 41 438.496C41 439.32 40.325 439.994 39.5 439.994C38.675 439.994 38 440.668 38 441.492C38 442.316 37.325 442.99 36.5 442.99C35.675 442.99 35 443.564 35 444.266C35 444.968 34.1 446.311 33 447.252C31.9 448.192 31 449.592 31 450.362C31 451.133 30.325 452.022 29.5 452.339C28.675 452.654 28 453.601 28 454.443C28 455.283 27.325 455.971 26.5 455.971C25.5 455.971 25 456.97 25 458.967C25 460.964 24.5 461.963 23.5 461.963C22.667 461.963 22 462.851 22 463.96C22 465.07 21.333 465.957 20.5 465.957C19.5 465.957 19 466.956 19 468.953C19 470.95 18.5 471.949 17.5 471.949C16.5 471.949 16 472.948 16 474.945C16 476.885 15.493 477.941 14.561 477.941C13.626 477.941 12.89 479.489 12.458 482.367C12.092 484.802 11.165 487.035 10.397 487.328C9.628 487.623 9 489.033 9 490.463C9 491.893 8.325 493.736 7.5 494.56C6.581 495.477 6 497.924 6 500.872C6 504.232 5.546 505.861 4.5 506.263C3.32 506.714 3 508.76 3 515.856C3 523.207 2.723 524.875 1.5 524.875C0.224 524.875 0 527.482 0 542.35C0 557.218 0.224 559.825 1.5 559.825C2.728 559.825 3 561.545 3 569.312C3 577.079 3.272 578.799 4.5 578.799C5.63 578.799 6 580.011 6 583.721C6 586.763 6.572 589.214 7.5 590.14C8.325 590.964 9 592.771 9 594.156C9 595.541 9.607 597.033 10.348 597.472C11.09 597.912 11.976 600.043 12.317 602.209C12.658 604.374 13.626 606.531 14.468 607.001C15.311 607.472 16 608.91 16 610.198C16 611.485 16.675 612.796 17.5 613.112C18.325 613.428 19 614.824 19 616.215C19 617.796 19.562 618.742 20.5 618.742C21.333 618.742 22 619.63 22 620.74C22 621.849 22.667 622.737 23.5 622.737C24.5 622.737 25 623.735 25 625.733C25 627.73 25.5 628.728 26.5 628.728C27.325 628.728 28 629.416 28 630.257C28 631.099 28.648 632.035 29.439 632.338C30.23 632.642 31.166 634.2 31.518 635.802C31.871 637.404 32.798 638.714 33.579 638.714C34.361 638.714 35 639.388 35 640.212C35 641.036 35.675 641.71 36.5 641.71C37.325 641.71 38 642.384 38 643.208C38 644.032 38.675 644.706 39.5 644.706C40.325 644.706 41 645.38 41 646.204C41 647.028 41.675 647.702 42.5 647.702C43.325 647.702 44 648.376 44 649.2C44 650.023 44.675 650.698 45.5 650.698C46.325 650.698 47 651.386 47 652.226C47 653.068 47.675 654.015 48.5 654.33C49.325 654.647 50 655.532 50 656.297C50 657.062 50.675 657.688 51.5 657.688C52.325 657.688 53 658.362 53 659.186C53 660.009 53.627 660.683 54.393 660.683C55.159 660.683 56.045 661.358 56.362 662.181C56.678 663.005 57.626 663.679 58.469 663.679C59.311 663.679 60 664.353 60 665.177C60 666.176 61 666.675 63 666.675C65 666.675 66 667.174 66 668.173C66 668.997 66.675 669.671 67.5 669.671C68.325 669.671 69 670.345 69 671.169C69 671.993 69.689 672.667 70.531 672.667C71.374 672.667 72.306 673.3 72.604 674.075C72.901 674.849 74.292 675.769 75.693 676.121C77.095 676.472 78.894 677.412 79.692 678.208C80.49 679.005 82.011 679.657 83.071 679.657C84.132 679.657 85 680.331 85 681.155C85 682.141 85.988 682.653 87.893 682.653C89.542 682.653 91.034 683.297 91.362 684.15C91.698 685.026 93.197 685.648 94.969 685.648C96.997 685.648 98 686.145 98 687.146C98 688.256 99.167 688.644 102.5 688.644C105.833 688.644 107 689.033 107 690.142C107 691.249 108.161 691.64 111.45 691.64C114.15 691.64 116.215 692.175 116.7 693.001C117.211 693.871 120.162 694.548 124.863 694.873C129.379 695.187 132.541 695.891 133.039 696.696C134.115 698.434 178.794 698.581 179.866 696.849C180.245 696.236 183.693 695.421 187.528 695.037C191.362 694.653 194.796 693.884 195.158 693.329C195.52 692.773 198.332 692.11 201.408 691.856C205.264 691.536 207 690.966 207 690.018C207 689.113 208.196 688.644 210.5 688.644C212.944 688.644 214 688.193 214 687.146C214 686.106 215.048 685.648 217.429 685.648C219.314 685.648 221.456 685.05 222.188 684.319C222.921 683.587 224.753 682.681 226.26 682.303C227.767 681.925 229 681.175 229 680.636C229 680.097 229.9 679.657 231 679.657C232.1 679.657 233 679.019 233 678.238C233 677.458 234.312 676.532 235.916 676.18C237.521 675.828 239.081 674.894 239.385 674.104C239.689 673.314 241.076 672.667 242.469 672.667C244.052 672.667 245 672.105 245 671.169C245 670.337 245.889 669.671 247 669.671C248.111 669.671 249 669.005 249 668.173C249 667.349 249.675 666.675 250.5 666.675C251.325 666.675 252 666.05 252 665.285C252 664.521 253.146 663.608 254.546 663.258C255.947 662.906 259.019 660.612 261.375 658.156C263.73 655.701 266.184 653.693 266.829 653.693C267.473 653.693 268 653.019 268 652.195C268 651.372 268.675 650.698 269.5 650.698C270.325 650.698 271 650.023 271 649.2C271 648.376 271.675 647.702 272.5 647.702C273.325 647.702 274 647.028 274 646.204C274 645.38 274.675 644.706 275.5 644.706C276.5 644.706 277 643.707 277 641.71C277 639.713 277.5 638.714 278.5 638.714C279.325 638.714 280 638.04 280 637.216C280 636.393 280.675 635.719 281.5 635.719C282.333 635.719 283 634.831 283 633.721C283 632.623 283.639 631.724 284.421 631.724C285.202 631.724 286.138 630.376 286.5 628.728C286.862 627.081 287.798 625.733 288.579 625.733C289.361 625.733 290 625.027 290 624.164C290 623.3 290.675 621.92 291.5 621.096C292.325 620.272 293 618.731 293 617.673C293 616.613 293.675 615.747 294.5 615.747C295.5 615.747 296 614.748 296 612.751C296 610.754 296.5 609.755 297.5 609.755C298.5 609.755 299 608.757 299 606.759C299 604.762 299.5 603.764 300.5 603.764C301.609 603.764 302 602.604 302 599.32C302 596.652 302.539 594.556 303.348 594.077C304.09 593.638 304.974 591.517 305.313 589.365C305.652 587.212 306.42 585.148 307.021 584.777C307.621 584.407 308.38 581.45 308.706 578.206C309.033 574.962 309.796 571.987 310.4 571.595C311.941 570.596 311.941 514.104 310.4 513.105C309.796 512.713 309.033 509.738 308.706 506.494C308.38 503.25 307.621 500.293 307.021 499.923C306.42 499.552 305.652 497.488 305.313 495.335C304.974 493.183 304.09 491.062 303.348 490.623C302.58 490.167 302 488.128 302 485.879C302 483.039 301.58 481.935 300.5 481.935C299.452 481.935 299 480.88 299 478.44C299 475.999 298.548 474.945 297.5 474.945C296.5 474.945 296 473.946 296 471.949C296 469.952 295.5 468.953 294.5 468.953C293.675 468.953 293 468.086 293 467.027C293 465.968 292.325 464.428 291.5 463.604C290.675 462.78 290 461.4 290 460.536C290 459.673 289.361 458.967 288.579 458.967C287.798 458.967 286.862 457.619 286.5 455.971C286.138 454.324 285.202 452.976 284.421 452.976C283.639 452.976 283 452.35 283 451.585C283 450.82 282.325 449.935 281.5 449.618C280.675 449.303 280 448.356 280 447.514C280 446.674 279.325 445.985 278.5 445.985C277.567 445.985 277 445.043 277 443.489C277 441.935 276.433 440.992 275.5 440.992C274.667 440.992 274 440.105 274 438.995C274 437.886 273.333 436.998 272.5 436.998C271.675 436.998 271 436.324 271 435.5C271 434.676 270.325 434.002 269.5 434.002C268.675 434.002 268 433.328 268 432.504C268 431.673 267.111 431.007 266 431.007C264.9 431.007 264 430.557 264 430.008C264 429.459 263.1 428.111 262 427.012C260.9 425.914 259.55 425.015 259 425.015C258.45 425.015 258 424.377 258 423.596C258 422.816 256.65 421.881 255 421.52C253.35 421.158 252 420.224 252 419.444C252 418.663 251.325 418.025 250.5 418.025C249.675 418.025 249 417.351 249 416.527C249 415.695 248.111 415.029 247 415.029C245.889 415.029 245 414.363 245 413.531C245 412.533 244 412.033 242 412.033C240.075 412.033 239 411.525 239 410.614C239 409.834 237.688 408.909 236.084 408.556C234.479 408.205 232.919 407.27 232.615 406.48C232.311 405.69 231.374 405.043 230.531 405.043C229.689 405.043 229 404.603 229 404.063C229 403.525 227.767 402.775 226.26 402.397C224.753 402.019 222.921 401.113 222.188 400.381C221.456 399.65 219.314 399.051 217.429 399.051C215.048 399.051 214 398.594 214 397.554C214 396.547 212.992 396.056 210.929 396.056C209.239 396.056 207.182 395.382 206.357 394.558C205.43 393.631 202.976 393.06 199.929 393.06C196.214 393.06 195 392.69 195 391.562C195 390.386 193.619 390.064 188.571 390.064C184.19 390.064 181.665 389.587 180.643 388.566C179.397 387.322 175.258 387.068 156.178 387.068C136.688 387.068 133.127 387.295 132.638 388.566Z" fill="#EB3669"/>
<path fill-rule="evenodd" clip-rule="evenodd" d="M57 1.49789C57 2.62631 55.786 2.99579 52.071 2.99579C49.024 2.99579 46.57 3.56698 45.643 4.49368C44.818 5.31752 42.761 5.99157 41.071 5.99157C39.008 5.99157 38 6.48288 38 7.48947C38 8.32429 37.11 8.98736 35.99 8.98736C34.885 8.98736 33.21 9.88609 32.268 10.9845C31.326 12.083 30.211 12.9817 29.789 12.9817C28.445 12.9817 25 16.374 25 17.6971C25 18.3991 24.325 18.9733 23.5 18.9733C22.675 18.9733 22 19.6474 22 20.4712C22 21.295 21.325 21.9691 20.5 21.9691C19.675 21.9691 19 22.6432 19 23.467C19 24.2908 18.325 24.9649 17.5 24.9649C16.675 24.9649 16 25.6389 16 26.4628C16 27.2866 15.361 27.9607 14.579 27.9607C13.798 27.9607 12.862 29.3088 12.5 30.9565C12.138 32.6041 11.413 33.9522 10.889 33.9522C10.366 33.9522 9.639 34.7391 9.275 35.6998C8.91 36.6604 8.024 38.0415 7.306 38.7665C6.588 39.4925 6 41.6275 6 43.5098C6 45.8875 5.542 46.934 4.5 46.934C3.367 46.934 3 48.1543 3 51.927C3 55.6997 2.633 56.9199 1.5 56.9199C0.177 56.9199 0 68.5705 0 155.781C0 242.991 0.177 254.642 1.5 254.642C2.667 254.642 3 255.973 3 260.633C3 265.294 3.333 266.625 4.5 266.625C5.503 266.625 6 267.627 6 269.652C6 271.364 6.625 272.919 7.439 273.231C8.23 273.534 9.166 275.092 9.518 276.695C9.871 278.297 10.798 279.607 11.579 279.607C12.361 279.607 13 280.281 13 281.105C13 281.928 13.45 282.603 14 282.603C14.55 282.603 15 283.177 15 283.879C15 284.581 15.9 285.924 17 286.865C18.1 287.805 19 289.217 19 290.003C19 290.788 20.35 291.728 22 292.089C23.65 292.451 25 293.385 25 294.165C25 294.946 25.675 295.584 26.5 295.584C27.325 295.584 28 296.258 28 297.082C28 297.906 28.675 298.58 29.5 298.58C30.325 298.58 31 299.254 31 300.078C31 301.077 32 301.576 34 301.576C35.893 301.576 37 302.087 37 302.963C37 303.751 38.478 304.627 40.427 304.991C42.312 305.345 44.003 306.08 44.185 306.624C44.367 307.169 46.312 307.898 48.508 308.244C50.704 308.591 52.821 309.367 53.214 309.969C54.341 311.697 640.797 311.508 641.867 309.779C642.304 309.073 644.425 308.218 646.581 307.88C648.736 307.541 650.86 306.659 651.3 305.918C651.74 305.178 653.427 304.572 655.05 304.572C657.006 304.572 658 304.066 658 303.074C658 302.25 658.675 301.576 659.5 301.576C660.325 301.576 661 300.902 661 300.078C661 299.079 662 298.58 664 298.58C666 298.58 667 298.081 667 297.082C667 296.258 667.675 295.584 668.5 295.584C669.325 295.584 670 294.962 670 294.203C670 293.443 670.9 292.586 672 292.299C673.1 292.012 674 291.061 674 290.186C674 289.31 674.675 288.594 675.5 288.594C676.325 288.594 677 287.92 677 287.096C677 286.272 677.675 285.598 678.5 285.598C679.5 285.598 680 284.6 680 282.603C680 280.605 680.5 279.607 681.5 279.607C682.325 279.607 683 278.933 683 278.109C683 277.285 683.675 276.611 684.5 276.611C685.548 276.611 686 275.556 686 273.116C686 270.815 686.47 269.621 687.376 269.621C688.325 269.621 688.896 267.887 689.216 264.037C689.49 260.74 690.257 258.096 691.09 257.582C693.133 256.321 693.216 54.2936 691.174 53.0334C690.445 52.583 689.598 50.3522 689.293 48.0764C688.948 45.511 688.217 43.9382 687.368 43.9382C686.471 43.9382 686 42.7349 686 40.4431C686 38.0026 685.548 36.948 684.5 36.948C683.5 36.948 683 35.9494 683 33.9522C683 31.9551 682.5 30.9565 681.5 30.9565C680.675 30.9565 680 30.2824 680 29.4586C680 28.6347 679.361 27.9607 678.579 27.9607C677.798 27.9607 676.862 26.6126 676.5 24.9649C676.138 23.3172 675.202 21.9691 674.421 21.9691C673.639 21.9691 673 21.295 673 20.4712C673 19.6474 672.325 18.9733 671.5 18.9733C670.675 18.9733 670 18.3352 670 17.5543C670 16.7744 668.65 15.8397 667 15.4782C665.35 15.1167 664 14.1821 664 13.4022C664 12.6212 663.325 11.9831 662.5 11.9831C661.675 11.9831 661 11.3091 661 10.4853C661 9.48666 660 8.98736 658 8.98736C656 8.98736 655 8.48806 655 7.48947C655 6.44294 653.944 5.99157 651.5 5.99157C649.056 5.99157 648 5.54021 648 4.49368C648 3.38424 646.833 2.99579 643.5 2.99579C640.167 2.99579 639 2.60733 639 1.49789C639 0.169761 606 0 348 0C90 0 57 0.169761 57 1.49789Z" fill="#F9A619"/>
<path d="M1794.64 415.909C1794.64 430.518 1791.04 443.105 1783.85 453.669C1776.77 464.232 1766.54 472.324 1753.17 477.943C1739.91 483.562 1724.06 486.371 1705.63 486.371C1696.64 486.371 1688.05 485.866 1679.84 484.854C1671.64 483.843 1663.88 482.382 1656.58 480.471C1649.39 478.449 1642.81 476.032 1636.86 473.223V435.126C1646.86 439.509 1658.04 443.498 1670.4 447.094C1682.76 450.578 1695.35 452.32 1708.16 452.32C1718.61 452.32 1727.27 450.972 1734.12 448.274C1741.09 445.465 1746.26 441.532 1749.63 436.475C1753 431.305 1754.69 425.293 1754.69 418.437C1754.69 411.133 1752.72 404.952 1748.79 399.895C1744.85 394.838 1738.9 390.23 1730.92 386.072C1723.05 381.802 1713.16 377.25 1701.25 372.418C1693.16 369.159 1685.41 365.45 1677.99 361.292C1670.68 357.134 1664.17 352.245 1658.43 346.626C1652.7 341.007 1648.15 334.377 1644.78 326.735C1641.52 318.981 1639.89 309.878 1639.89 299.427C1639.89 285.492 1643.21 273.579 1649.84 263.69C1656.58 253.8 1666.02 246.215 1678.16 240.933C1690.41 235.651 1704.68 233.01 1720.97 233.01C1733.9 233.01 1746.03 234.359 1757.38 237.056C1768.85 239.753 1780.09 243.574 1791.1 248.518L1778.29 281.053C1768.17 276.894 1758.34 273.579 1748.79 271.107C1739.35 268.635 1729.68 267.398 1719.79 267.398C1711.25 267.398 1704 268.691 1698.05 271.275C1692.09 273.86 1687.54 277.513 1684.39 282.233C1681.36 286.84 1679.84 292.347 1679.84 298.752C1679.84 305.945 1681.58 312.013 1685.07 316.958C1688.66 321.79 1694.17 326.229 1701.59 330.275C1709.12 334.321 1718.78 338.816 1730.58 343.761C1744.18 349.38 1755.7 355.28 1765.14 361.461C1774.69 367.642 1782 375.059 1787.05 383.712C1792.11 392.253 1794.64 402.985 1794.64 415.909ZM2003.33 389.275C2003.33 404.783 2001.31 418.55 1997.26 430.575C1993.22 442.599 1987.32 452.77 1979.56 461.086C1971.81 469.29 1962.48 475.583 1951.58 479.966C1940.68 484.236 1928.37 486.371 1914.66 486.371C1901.85 486.371 1890.11 484.236 1879.43 479.966C1868.75 475.583 1859.48 469.29 1851.62 461.086C1843.86 452.77 1837.85 442.599 1833.58 430.575C1829.31 418.55 1827.17 404.783 1827.17 389.275C1827.17 368.709 1830.71 351.29 1837.79 337.018C1844.99 322.633 1855.21 311.676 1868.47 304.147C1881.73 296.617 1897.52 292.852 1915.84 292.852C1933.04 292.852 1948.21 296.617 1961.36 304.147C1974.5 311.676 1984.79 322.633 1992.2 337.018C1999.62 351.403 2003.33 368.822 2003.33 389.275ZM1867.97 389.275C1867.97 402.873 1869.6 414.504 1872.86 424.169C1876.23 433.834 1881.4 441.251 1888.36 446.42C1895.33 451.477 1904.32 454.006 1915.34 454.006C1926.35 454.006 1935.34 451.477 1942.31 446.42C1949.27 441.251 1954.39 433.834 1957.65 424.169C1960.91 414.504 1962.54 402.873 1962.54 389.275C1962.54 375.677 1960.91 364.158 1957.65 354.718C1954.39 345.166 1949.27 337.917 1942.31 332.972C1935.34 327.915 1926.29 325.387 1915.17 325.387C1898.76 325.387 1886.79 330.893 1879.26 341.906C1871.73 352.92 1867.97 368.709 1867.97 389.275ZM2142.06 326.567H2096.72V483H2057.1V326.567H2026.59V307.518L2057.1 295.887V282.907C2057.1 267.061 2059.58 254.475 2064.52 245.147C2069.58 235.819 2076.77 229.133 2086.1 225.087C2095.54 220.929 2106.78 218.85 2119.81 218.85C2128.35 218.85 2136.16 219.58 2143.24 221.041C2150.32 222.39 2156.28 223.963 2161.11 225.761L2150.83 255.767C2147.01 254.531 2142.74 253.407 2138.02 252.396C2133.3 251.272 2128.24 250.71 2122.85 250.71C2113.86 250.71 2107.22 253.519 2102.95 259.138C2098.8 264.757 2096.72 272.961 2096.72 283.75V296.392H2142.06V326.567ZM2243.37 454.343C2248.54 454.343 2253.66 453.893 2258.71 452.994C2263.77 451.983 2268.38 450.803 2272.54 449.454V479.46C2268.15 481.37 2262.48 483 2255.51 484.349C2248.54 485.697 2241.29 486.371 2233.77 486.371C2223.2 486.371 2213.71 484.63 2205.28 481.146C2196.85 477.55 2190.16 471.425 2185.22 462.772C2180.27 454.118 2177.8 442.15 2177.8 426.866V326.567H2152.35V308.867L2179.65 294.875L2192.63 254.924H2217.58V296.392H2271.02V326.567H2217.58V426.36C2217.58 435.8 2219.94 442.824 2224.66 447.432C2229.38 452.039 2235.62 454.343 2243.37 454.343ZM2405.03 292.852C2408.18 292.852 2411.61 293.021 2415.32 293.358C2419.02 293.695 2422.23 294.145 2424.92 294.707L2421.22 331.792C2418.86 331.118 2415.93 330.612 2412.45 330.275C2409.08 329.938 2406.04 329.769 2403.35 329.769C2396.27 329.769 2389.52 330.949 2383.12 333.309C2376.71 335.557 2371.04 339.041 2366.09 343.761C2361.15 348.368 2357.27 354.156 2354.46 361.124C2351.65 368.091 2350.25 376.182 2350.25 385.398V483H2310.46V296.392H2341.48L2346.88 329.264H2348.73C2352.44 322.633 2357.05 316.565 2362.55 311.058C2368.06 305.551 2374.35 301.169 2381.43 297.91C2388.63 294.538 2396.49 292.852 2405.03 292.852ZM2747.57 483H2707.28V371.743H2593.66V483H2553.21V236.55H2593.66V337.355H2707.28V236.55H2747.57V483ZM2883.1 292.852C2899.73 292.852 2914 296.28 2925.92 303.135C2937.83 309.99 2946.99 319.711 2953.39 332.298C2959.8 344.885 2963 359.944 2963 377.475V398.715H2838.43C2838.88 416.808 2843.71 430.743 2852.92 440.52C2862.25 450.297 2875.29 455.186 2892.03 455.186C2903.95 455.186 2914.62 454.062 2924.06 451.814C2933.61 449.454 2943.45 446.027 2953.56 441.532V473.729C2944.23 478.111 2934.74 481.314 2925.07 483.337C2915.41 485.36 2903.83 486.371 2890.35 486.371C2872.03 486.371 2855.9 482.831 2841.97 475.751C2828.14 468.559 2817.3 457.883 2809.43 443.723C2801.68 429.563 2797.8 411.976 2797.8 390.961C2797.8 370.058 2801.34 352.302 2808.42 337.692C2815.5 323.083 2825.45 311.957 2838.26 304.315C2851.07 296.673 2866.02 292.852 2883.1 292.852ZM2883.1 322.689C2870.62 322.689 2860.51 326.735 2852.76 334.827C2845.11 342.918 2840.62 354.774 2839.27 370.395H2924.23C2924.12 361.067 2922.54 352.807 2919.51 345.615C2916.59 338.423 2912.09 332.804 2906.02 328.758C2900.07 324.712 2892.43 322.689 2883.1 322.689ZM3047.46 483H3007.67V220.704H3047.46V483ZM3199.84 292.852C3221.98 292.852 3239.74 300.944 3253.11 317.127C3266.6 333.309 3273.34 357.359 3273.34 389.275C3273.34 410.402 3270.19 428.215 3263.9 442.712C3257.72 457.096 3249.01 467.997 3237.77 475.414C3226.65 482.719 3213.67 486.371 3198.83 486.371C3189.39 486.371 3181.19 485.135 3174.22 482.663C3167.25 480.19 3161.3 476.988 3156.35 473.054C3151.41 469.009 3147.25 464.626 3143.88 459.906H3141.52C3142.08 464.401 3142.59 469.402 3143.03 474.909C3143.6 480.303 3143.88 485.248 3143.88 489.743V565.768H3104.09V296.392H3136.46L3142.02 322.184H3143.88C3147.36 316.902 3151.58 312.013 3156.52 307.518C3161.58 303.023 3167.65 299.483 3174.73 296.898C3181.92 294.201 3190.29 292.852 3199.84 292.852ZM3189.22 325.218C3178.32 325.218 3169.56 327.409 3162.93 331.792C3156.41 336.063 3151.63 342.525 3148.6 351.178C3145.68 359.831 3144.1 370.676 3143.88 383.712V389.275C3143.88 403.098 3145.28 414.841 3148.09 424.506C3151.01 434.058 3155.79 441.363 3162.42 446.42C3169.16 451.365 3178.27 453.837 3189.73 453.837C3199.39 453.837 3207.37 451.196 3213.67 445.914C3220.07 440.633 3224.85 433.103 3227.99 423.326C3231.14 413.549 3232.71 402.03 3232.71 388.769C3232.71 368.653 3229.12 353.032 3221.93 341.906C3214.85 330.781 3203.94 325.218 3189.22 325.218ZM3613.01 357.415C3613.01 385.173 3607.84 408.379 3597.5 427.035C3587.16 445.577 3572.16 459.569 3552.49 469.009C3532.83 478.336 3509.11 483 3481.36 483H3412.92V236.55H3488.77C3514.28 236.55 3536.31 241.158 3554.85 250.373C3573.39 259.476 3587.72 273.017 3597.84 290.998C3607.95 308.867 3613.01 331.006 3613.01 357.415ZM3570.87 358.595C3570.87 338.367 3567.66 321.734 3561.26 308.698C3554.96 295.662 3545.64 285.997 3533.28 279.704C3521.03 273.298 3505.91 270.095 3487.93 270.095H3453.37V449.117H3482.03C3511.81 449.117 3534.06 441.532 3548.78 426.36C3563.51 411.189 3570.87 388.601 3570.87 358.595ZM3827.26 389.275C3827.26 404.783 3825.24 418.55 3821.19 430.575C3817.15 442.599 3811.25 452.77 3803.49 461.086C3795.74 469.29 3786.41 475.583 3775.51 479.966C3764.61 484.236 3752.3 486.371 3738.59 486.371C3725.78 486.371 3714.04 484.236 3703.36 479.966C3692.69 475.583 3683.42 469.29 3675.55 461.086C3667.79 452.77 3661.78 442.599 3657.51 430.575C3653.24 418.55 3651.11 404.783 3651.11 389.275C3651.11 368.709 3654.65 351.29 3661.73 337.018C3668.92 322.633 3679.14 311.676 3692.41 304.147C3705.67 296.617 3721.46 292.852 3739.77 292.852C3756.97 292.852 3772.14 296.617 3785.29 304.147C3798.44 311.676 3808.72 322.633 3816.14 337.018C3823.55 351.403 3827.26 368.822 3827.26 389.275ZM3691.9 389.275C3691.9 402.873 3693.53 414.504 3696.79 424.169C3700.16 433.834 3705.33 441.251 3712.3 446.42C3719.26 451.477 3728.26 454.006 3739.27 454.006C3750.28 454.006 3759.27 451.477 3766.24 446.42C3773.21 441.251 3778.32 433.834 3781.58 424.169C3784.84 414.504 3786.47 402.873 3786.47 389.275C3786.47 375.677 3784.84 364.158 3781.58 354.718C3778.32 345.166 3773.21 337.917 3766.24 332.972C3759.27 327.915 3750.23 325.387 3739.1 325.387C3722.69 325.387 3710.72 330.893 3703.19 341.906C3695.66 352.92 3691.9 368.709 3691.9 389.275ZM3947.96 486.371C3930.31 486.371 3915.03 482.944 3902.11 476.089C3889.18 469.233 3879.24 458.726 3872.27 444.566C3865.3 430.406 3861.82 412.425 3861.82 390.623C3861.82 367.923 3865.64 349.38 3873.28 334.995C3880.92 320.61 3891.49 309.99 3904.97 303.135C3918.57 296.28 3934.14 292.852 3951.67 292.852C3962.79 292.852 3972.85 293.976 3981.84 296.224C3990.94 298.359 3998.64 301 4004.94 304.147L3993.14 335.838C3986.28 333.028 3979.26 330.668 3972.06 328.758C3964.87 326.848 3957.96 325.892 3951.33 325.892C3940.43 325.892 3931.33 328.308 3924.02 333.141C3916.83 337.973 3911.43 345.166 3907.84 354.718C3904.36 364.27 3902.61 376.126 3902.61 390.286C3902.61 403.997 3904.41 415.572 3908.01 425.012C3911.6 434.339 3916.94 441.419 3924.02 446.252C3931.1 450.972 3939.81 453.332 3950.15 453.332C3960.38 453.332 3969.54 452.095 3977.63 449.623C3985.72 447.151 3993.36 443.948 4000.55 440.015V474.403C3993.47 478.449 3985.89 481.427 3977.8 483.337C3969.7 485.36 3959.76 486.371 3947.96 486.371ZM4169.8 429.732C4169.8 441.981 4166.82 452.32 4160.86 460.749C4154.91 469.177 4146.2 475.583 4134.73 479.966C4123.38 484.236 4109.45 486.371 4092.93 486.371C4079.89 486.371 4068.66 485.416 4059.22 483.506C4049.89 481.708 4041.07 478.898 4032.75 475.077V440.857C4041.63 445.015 4051.57 448.612 4062.59 451.646C4073.71 454.68 4084.22 456.197 4094.11 456.197C4107.15 456.197 4116.53 454.174 4122.26 450.129C4127.99 445.971 4130.86 440.464 4130.86 433.609C4130.86 429.563 4129.68 425.967 4127.32 422.82C4125.07 419.561 4120.8 416.246 4114.51 412.875C4108.33 409.391 4099.22 405.233 4087.2 400.4C4075.4 395.68 4065.45 390.961 4057.36 386.241C4049.27 381.521 4043.14 375.845 4038.99 369.215C4034.83 362.472 4032.75 353.875 4032.75 343.424C4032.75 326.904 4039.27 314.373 4052.3 305.832C4065.45 297.179 4082.81 292.852 4104.39 292.852C4115.85 292.852 4126.64 294.032 4136.76 296.392C4146.98 298.64 4156.99 301.955 4166.76 306.338L4154.29 336.175C4145.86 332.467 4137.38 329.432 4128.83 327.072C4120.41 324.6 4111.81 323.364 4103.04 323.364C4092.82 323.364 4085.01 324.937 4079.61 328.084C4074.33 331.23 4071.69 335.726 4071.69 341.569C4071.69 345.952 4072.98 349.661 4075.57 352.695C4078.15 355.729 4082.59 358.764 4088.88 361.798C4095.29 364.832 4104.17 368.597 4115.52 373.092C4126.64 377.362 4136.25 381.858 4144.34 386.578C4152.55 391.185 4158.84 396.86 4163.22 403.603C4167.61 410.346 4169.8 419.056 4169.8 429.732Z" fill="#111827"/>
</svg>
