<?xml version="1.0" encoding="UTF-8"?>
<svg version="1.1" xmlns="http://www.w3.org/2000/svg" width="32" height="32">
<path d="M0 0 C9.24 0 18.48 0 28 0 C28 3.96 28 7.92 28 12 C26.22550406 13.77449594 23.64982739 13.13030072 21.25 13.1328125 C20.0846875 13.13410156 18.919375 13.13539062 17.71875 13.13671875 C16.4915625 13.13285156 15.264375 13.12898437 14 13.125 C12.15921875 13.13080078 12.15921875 13.13080078 10.28125 13.13671875 C9.1159375 13.13542969 7.950625 13.13414063 6.75 13.1328125 C5.67234375 13.13168457 4.5946875 13.13055664 3.484375 13.12939453 C1 13 1 13 0 12 C0 8.04 0 4.08 0 0 Z " fill="#FBB400" transform="translate(2,2)"/>
<path d="M0 0 C0.89589844 0.01417969 1.79179687 0.02835938 2.71484375 0.04296875 C4.06255859 0.05263672 4.06255859 0.05263672 5.4375 0.0625 C7.65234375 0.23046875 7.65234375 0.23046875 8.65234375 1.23046875 C8.72478428 3.25011074 8.73611563 5.27213999 8.71484375 7.29296875 C8.70582031 8.39769531 8.69679688 9.50242187 8.6875 10.640625 C8.67589844 11.49527344 8.66429687 12.34992187 8.65234375 13.23046875 C6.67324977 13.25733428 4.69405404 13.2768025 2.71484375 13.29296875 C1.61269531 13.30457031 0.51054687 13.31617188 -0.625 13.328125 C-3.34765625 13.23046875 -3.34765625 13.23046875 -4.34765625 12.23046875 C-4.47220485 10.58816511 -4.52334149 8.93994599 -4.53515625 7.29296875 C-4.54933594 6.39707031 -4.56351563 5.50117188 -4.578125 4.578125 C-4.2533267 1.2695864 -3.3085386 0.3247983 0 0 Z " fill="#386AF5" transform="translate(21.34765625,16.76953125)"/>
<path d="M0 0 C2 3 2 3 1.75 6.5625 C1 10 1 10 -1 12 C-7.00458716 12.54587156 -7.00458716 12.54587156 -9.9375 10.9375 C-11.63335287 7.84506242 -11.43060657 5.44485259 -11 2 C-7.88980721 -1.98104677 -4.56233816 -1.18282841 0 0 Z " fill="#F43878" transform="translate(13,18)"/>
</svg>
