<svg width="423" height="128" viewBox="0 0 423 128" fill="none" xmlns="http://www.w3.org/2000/svg">
<path d="M165.51 81.1079H178.498C178.583 84.0779 179.687 86.4115 181.809 88.1087C183.931 89.8058 186.86 90.6544 190.595 90.6544C194.5 90.6544 197.514 89.8907 199.636 88.3632C201.758 86.8358 202.819 84.8417 202.819 82.3808C202.819 80.5139 202.267 78.9865 201.164 77.7985C200.06 76.5256 197.98 75.5073 194.924 74.7436L183.719 72.1979C178.201 70.8402 174.042 68.7612 171.24 65.9609C168.524 63.1606 167.165 59.342 167.165 54.5051C167.165 50.5168 168.184 47.1226 170.222 44.3223C172.344 41.4371 175.23 39.2308 178.88 37.7034C182.531 36.0911 186.69 35.285 191.359 35.285C196.028 35.285 200.103 36.1335 203.583 37.8307C207.064 39.443 209.78 41.7341 211.733 44.7041C213.685 47.6741 214.661 51.1957 214.661 55.2689H201.673C201.588 52.2989 200.612 49.9653 198.744 48.2681C196.877 46.571 194.245 45.7224 190.85 45.7224C187.539 45.7224 184.95 46.4861 183.082 48.0136C181.215 49.4561 180.281 51.4503 180.281 53.996C180.281 57.8146 183.125 60.4452 188.812 61.8877L200.018 64.4335C205.281 65.6215 209.228 67.5732 211.86 70.2886C214.491 72.9192 215.807 76.6105 215.807 81.3625C215.807 85.3508 214.704 88.8724 212.497 91.9273C210.374 94.9821 207.403 97.3157 203.583 98.928C199.763 100.54 195.306 101.346 190.213 101.346C182.658 101.346 176.631 99.4796 172.132 95.7458C167.717 92.0121 165.51 87.1328 165.51 81.1079Z" fill="white"/>
<path d="M221.206 68.3793C221.206 61.8453 222.607 56.1174 225.408 51.1957C228.294 46.274 232.242 42.413 237.25 39.6127C242.259 36.8124 247.946 35.4122 254.313 35.4122C260.68 35.4122 266.325 36.8124 271.248 39.6127C276.172 42.413 280.077 46.274 282.963 51.1957C285.849 56.1174 287.293 61.8453 287.293 68.3793C287.293 74.8285 285.849 80.5139 282.963 85.4357C280.077 90.3574 276.172 94.2184 271.248 97.0187C266.325 99.819 260.68 101.219 254.313 101.219C247.946 101.219 242.259 99.819 237.25 97.0187C232.242 94.2184 228.294 90.3574 225.408 85.4357C222.607 80.5139 221.206 74.8285 221.206 68.3793ZM234.958 68.252C234.958 72.3252 235.764 75.9316 237.377 79.0714C239.075 82.1262 241.367 84.5447 244.253 86.3267C247.14 88.0238 250.493 88.8724 254.313 88.8724C258.048 88.8724 261.359 88.0238 264.245 86.3267C267.131 84.5447 269.381 82.1262 270.994 79.0714C272.607 75.9316 273.413 72.3252 273.413 68.252C273.413 64.1789 272.607 60.6149 270.994 57.56C269.381 54.5051 267.131 52.1291 264.245 50.432C261.359 48.65 258.048 47.759 254.313 47.759C250.493 47.759 247.14 48.65 244.253 50.432C241.367 52.1291 239.075 54.5051 237.377 57.56C235.764 60.6149 234.958 64.1789 234.958 68.252Z" fill="white"/>
<path d="M292.743 37.1942H330.434V48.65H292.743V37.1942ZM330.689 6.00914V17.8467C329.925 17.8467 329.076 17.8467 328.142 17.8467C327.208 17.8467 326.275 17.8467 325.341 17.8467C321.436 17.8467 318.804 18.7802 317.446 20.647C316.173 22.5139 315.536 25.0596 315.536 28.2842V99.6917H301.784V28.2842C301.784 22.9382 302.675 18.6105 304.458 15.301C306.326 11.9067 308.83 9.44587 311.971 7.91843C315.197 6.30614 318.889 5.5 323.049 5.5C324.237 5.5 325.511 5.54243 326.869 5.62728C328.227 5.71214 329.5 5.83943 330.689 6.00914Z" fill="white"/>
<path d="M338.123 37.1942H376.196V48.65H338.123V37.1942ZM363.972 99.6917H350.347V17.5922H363.972V99.6917Z" fill="white"/>
<path d="M421.313 36.8124V49.4137H415.837C410.15 49.4137 405.65 50.9835 402.34 54.1233C399.114 57.263 397.501 61.8877 397.501 67.9974V99.6917H383.876V37.1942H396.737L397.883 50.0501H396.61C397.459 45.8921 399.454 42.4978 402.594 39.8672C405.735 37.2367 409.81 35.9214 414.819 35.9214C415.837 35.9214 416.856 36.0062 417.875 36.1759C418.978 36.2608 420.124 36.4729 421.313 36.8124Z" fill="white"/>
<path d="M70.7533 91.9181C70.7533 84.4747 70.7533 80.7531 72.2024 77.9101C73.4771 75.4093 75.5111 73.3761 78.0128 72.1019C80.8569 70.6533 84.58 70.6533 92.0262 70.6533H105.822C113.268 70.6533 116.991 70.6533 119.835 72.1019C122.337 73.3761 124.371 75.4093 125.646 77.9101C127.095 80.7531 127.095 84.4747 127.095 91.9181V105.709C127.095 113.152 127.095 116.874 125.646 119.717C124.371 122.217 122.337 124.251 119.835 125.525C116.991 126.973 113.268 126.973 105.822 126.973H92.0262C84.58 126.973 80.8569 126.973 78.0128 125.525C75.5111 124.251 73.4771 122.217 72.2024 119.717C70.7533 116.874 70.7533 113.152 70.7533 105.709V91.9181Z" fill="#386AF5"/>
<path d="M1.0874 98.8133C1.0874 83.261 13.6999 70.6533 29.2581 70.6533C44.8164 70.6533 57.4289 83.261 57.4289 98.8133C57.4289 114.366 44.8164 126.973 29.2581 126.973C13.6999 126.973 1.0874 114.366 1.0874 98.8133Z" fill="#F53878"/>
<path d="M1.0874 22.2902C1.0874 14.8468 1.0874 11.1251 2.53653 8.28212C3.81122 5.78136 5.84518 3.74817 8.3469 2.47397C11.191 1.02539 14.9141 1.02539 22.3603 1.02539H105.822C113.268 1.02539 116.991 1.02539 119.835 2.47397C122.337 3.74817 124.371 5.78136 125.646 8.28212C127.095 11.1251 127.095 14.8468 127.095 22.2902V36.0806C127.095 43.524 127.095 47.2457 125.646 50.0887C124.371 52.5894 122.337 54.6226 119.835 55.8968C116.991 57.3454 113.268 57.3454 105.822 57.3454H22.3603C14.9141 57.3454 11.191 57.3454 8.3469 55.8968C5.84518 54.6226 3.81122 52.5894 2.53653 50.0887C1.0874 47.2457 1.0874 43.524 1.0874 36.0806V22.2902Z" fill="#FCB500"/>
</svg>
