<svg width="32" height="32" viewBox="0 0 32 32" fill="none" xmlns="http://www.w3.org/2000/svg">
<path d="M17.3007 21.4529C17.3007 19.9991 17.3007 19.2722 17.5836 18.7169C17.8325 18.2285 18.2296 17.8314 18.718 17.5825C19.2733 17.2996 20.0002 17.2996 21.4539 17.2996H24.1474C25.6012 17.2996 26.3281 17.2996 26.8833 17.5825C27.3718 17.8314 27.7689 18.2285 28.0177 18.7169C28.3007 19.2722 28.3007 19.9991 28.3007 21.4529V24.1463C28.3007 25.6001 28.3007 26.327 28.0177 26.8823C27.7689 27.3707 27.3718 27.7678 26.8833 28.0167C26.3281 28.2996 25.6012 28.2996 24.1474 28.2996H21.4539C20.0002 28.2996 19.2733 28.2996 18.718 28.0167C18.2296 27.7678 17.8325 27.3707 17.5836 26.8823C17.3007 26.327 17.3007 25.6001 17.3007 24.1463V21.4529Z" fill="#386AF5"/>
<path d="M3.69922 22.7996C3.69922 19.762 6.16165 17.2996 9.19922 17.2996C12.2368 17.2996 14.6992 19.762 14.6992 22.7996C14.6992 25.8372 12.2368 28.2996 9.19922 28.2996C6.16165 28.2996 3.69922 25.8372 3.69922 22.7996Z" fill="#F53878"/>
<path d="M3.69922 7.85367C3.69922 6.39989 3.69922 5.673 3.98214 5.11772C4.23101 4.62929 4.62812 4.23219 5.11655 3.98332C5.67182 3.70039 6.39871 3.70039 7.85249 3.70039H24.1474C25.6012 3.70039 26.3281 3.70039 26.8833 3.98332C27.3718 4.23219 27.7689 4.62929 28.0177 5.11772C28.3007 5.673 28.3007 6.39989 28.3007 7.85367V10.5471C28.3007 12.0009 28.3007 12.7278 28.0177 13.2831C27.7689 13.7715 27.3718 14.1686 26.8833 14.4175C26.3281 14.7004 25.6012 14.7004 24.1474 14.7004H7.85249C6.39871 14.7004 5.67182 14.7004 5.11655 14.4175C4.62812 14.1686 4.23101 13.7715 3.98214 13.2831C3.69922 12.7278 3.69922 12.0009 3.69922 10.5471V7.85367Z" fill="#FCB500"/>
</svg>
