<svg width="48" height="48" viewBox="0 0 48 48" fill="none" xmlns="http://www.w3.org/2000/svg">
<rect width="48" height="48" fill="#030712"/>
<path d="M25.3007 29.4529C25.3007 27.9991 25.3007 27.2722 25.5836 26.7169C25.8325 26.2285 26.2296 25.8314 26.718 25.5825C27.2733 25.2996 28.0002 25.2996 29.4539 25.2996H32.1474C33.6012 25.2996 34.3281 25.2996 34.8833 25.5825C35.3718 25.8314 35.7689 26.2285 36.0177 26.7169C36.3007 27.2722 36.3007 27.9991 36.3007 29.4529V32.1463C36.3007 33.6001 36.3007 34.327 36.0177 34.8823C35.7689 35.3707 35.3718 35.7678 34.8833 36.0167C34.3281 36.2996 33.6012 36.2996 32.1474 36.2996H29.4539C28.0002 36.2996 27.2733 36.2996 26.718 36.0167C26.2296 35.7678 25.8325 35.3707 25.5836 34.8823C25.3007 34.327 25.3007 33.6001 25.3007 32.1463V29.4529Z" fill="#386AF5"/>
<path d="M11.6992 30.7996C11.6992 27.762 14.1617 25.2996 17.1992 25.2996C20.2368 25.2996 22.6992 27.762 22.6992 30.7996C22.6992 33.8372 20.2368 36.2996 17.1992 36.2996C14.1617 36.2996 11.6992 33.8372 11.6992 30.7996Z" fill="#F53878"/>
<path d="M11.6992 15.8537C11.6992 14.3999 11.6992 13.673 11.9821 13.1177C12.231 12.6293 12.6281 12.2322 13.1165 11.9833C13.6718 11.7004 14.3987 11.7004 15.8525 11.7004H32.1474C33.6012 11.7004 34.3281 11.7004 34.8833 11.9833C35.3718 12.2322 35.7689 12.6293 36.0177 13.1177C36.3007 13.673 36.3007 14.3999 36.3007 15.8537V18.5471C36.3007 20.0009 36.3007 20.7278 36.0177 21.2831C35.7689 21.7715 35.3718 22.1686 34.8833 22.4175C34.3281 22.7004 33.6012 22.7004 32.1474 22.7004H15.8525C14.3987 22.7004 13.6718 22.7004 13.1165 22.4175C12.6281 22.1686 12.231 21.7715 11.9821 21.2831C11.6992 20.7278 11.6992 20.0009 11.6992 18.5471V15.8537Z" fill="#FCB500"/>
</svg>
